<?xml version="1.0" encoding="UTF-8" standalone="no"?>
<!-- Created with Inkscape (http://www.inkscape.org/) -->

<svg
   width="64.0px"
   height="64.0px"
   viewBox="0 0 64.0 64.0"
   version="1.1"
   id="SVGRoot"
   sodipodi:docname="mustang-plug.svg"
   inkscape:version="1.2 (dc2aedaf03, 2022-05-15)"
   xmlns:inkscape="http://www.inkscape.org/namespaces/inkscape"
   xmlns:sodipodi="http://sodipodi.sourceforge.net/DTD/sodipodi-0.dtd"
   xmlns="http://www.w3.org/2000/svg"
   xmlns:svg="http://www.w3.org/2000/svg">
  <sodipodi:namedview
     id="namedview14"
     pagecolor="#ffffff"
     bordercolor="#666666"
     borderopacity="1.0"
     inkscape:showpageshadow="2"
     inkscape:pageopacity="0.0"
     inkscape:pagecheckerboard="0"
     inkscape:deskcolor="#d1d1d1"
     inkscape:document-units="px"
     showgrid="false"
     inkscape:zoom="6.478531"
     inkscape:cx="20.14345"
     inkscape:cy="29.48199"
     inkscape:window-width="1920"
     inkscape:window-height="985"
     inkscape:window-x="0"
     inkscape:window-y="0"
     inkscape:window-maximized="1"
     inkscape:current-layer="layer1"
     showguides="false">
    <inkscape:grid
       type="xygrid"
       id="grid20" />
    <sodipodi:guide
       position="45.804179,41.508827"
       orientation="-0.41513343,0.90976054"
       id="guide1051"
       inkscape:locked="false" />
    <sodipodi:guide
       position="45.336047,43.069269"
       orientation="-0.41513344,0.90976053"
       id="guide1164"
       inkscape:label=""
       inkscape:locked="false"
       inkscape:color="rgb(0,134,229)" />
  </sodipodi:namedview>
  <defs
     id="defs9" />
  <g
     inkscape:label="Ebene 1"
     inkscape:groupmode="layer"
     id="layer1">
    <path
       id="path1168"
       style="fill:#ffffff;stroke:#000000;stroke-width:0.55;stroke-linecap:square;stroke-miterlimit:4.4"
       d="m 57.63565,19.80894 c -1.192748,0.04217 -2.602134,0.388278 -4.318359,1.128906 -4.019437,1.734567 -6.176779,2.899046 -9.036139,4.268556 l 0.521483,1.157229 c 2.522267,-1.253785 5.517792,-2.740848 7.435542,-3.640625 1.95385,-0.916716 3.419547,-1.547265 5.249032,-1.751959 0.958376,-0.107229 1.628923,0.154693 2.25391,0.541018 0.624987,0.386327 1.099744,1.24063 1.222656,2.052767 0.245824,1.624273 -2.798081,4.961746 -7.179558,7.015772 C 41.646652,36.270666 21.484389,43.162037 5.2416677,51.36869 5.0227478,54.495768 4.4341489,56.267898 2.0096756,59.894356 25.900513,45.314295 37.32143,40.317684 44.732897,36.366547 c 4.391598,-2.34121 6.476971,-3.269386 9.411213,-4.905738 3.180096,-1.773458 4.533489,-2.780427 6.026214,-4.32556 1.492724,-1.545134 1.860041,-2.325463 1.973137,-3.367322 0.109992,-1.013267 -0.315932,-2.056142 -1.255857,-2.820315 -1.050436,-0.854021 -2.05919,-1.180845 -3.251954,-1.138672 z"
       sodipodi:nodetypes="ssccsssssccsszsss" />
    <g
       id="g1335"
       transform="matrix(1.1639181,0,0,1.1639181,-0.7026267,-3.1168737)">
      <path
         style="fill:#000000;stroke:#000000;stroke-width:0.282;stroke-linecap:butt;stroke-linejoin:miter;stroke-dasharray:none;stroke-opacity:1"
         d="m 44.402854,20.812884 -10.394959,4.778288 -0.57098,-1.171058 -17.480969,7.959895 0.635261,1.380595 -12.3593123,5.612464 c -0.042876,0.783619 -0.4378489,1.05531 -1.1756907,0.534388 l -0.2571535,0.131757 -0.3336137,0.881754 0.313251,0.765456 0.9183896,0.351889 0.2446812,-0.121185 c 0.1764281,-0.87386 0.3935778,-0.93065 1.1962389,-0.562982 l 12.3280465,-5.573283 0.680593,1.365589 17.514147,-7.995662 -0.515326,-1.144379 10.34314,-4.789371 z"
         id="path161"
         sodipodi:nodetypes="ccccccccccccccccccc" />
      <path
         style="fill:#ffffff;stroke:#ffffff;stroke-width:0.5;stroke-linecap:butt;stroke-linejoin:miter;stroke-dasharray:none;stroke-opacity:1"
         d="m 34.475064,26.063353 10.159535,-4.56254"
         id="path1264"
         sodipodi:nodetypes="cc" />
      <path
         style="fill:#ffffff;stroke:#ffffff;stroke-width:0.833675;stroke-linecap:butt;stroke-linejoin:miter;stroke-dasharray:none;stroke-opacity:1"
         d="M 16.625482,33.255472 33.815243,25.440839"
         id="path1264-3" />
      <g
         id="path1264-6">
        <path
           style="color:#000000;fill:#ffffff;stroke:none"
           d="M 16.646484,34.298828 4.359375,39.857422 c -0.04181,0.699105 -0.461118,0.813584 -1.050781,0.466791 l -0.5373645,0.234502 -0.1306042,0.49206 0.7734375,-0.328125 c 0.6604634,0.03137 0.8364777,-0.05941 1.2070281,-0.548828 L 16.814453,34.671875 Z"
           id="path1310"
           sodipodi:nodetypes="ccccccccc" />
      </g>
    </g>
    <g
       aria-label="Plug"
       transform="matrix(1.2263825,-0.49126432,0.24940269,0.8178222,3.8501747,1.8009797)"
       id="text1405"
       style="font-style:italic;font-weight:500;font-size:26.5285px;line-height:1.25;font-family:'URW Chancery L';-inkscape-font-specification:'URW Chancery L, Medium Italic';stroke-width:0.5655634;fill:#ffffff;stroke:#000000;stroke-dasharray:none">
      <path
         d="m 3.897923,32.763849 c 1.0421689,-2.591976 3.6797031,-9.98216 4.9354639,-16.513979 -0.9719772,0.127692 -1.8766034,0.349049 -2.4725289,0.577436 -0.5959252,0.228388 -1.1511404,0.564262 -1.6617637,1.017209 -0.5480437,0.48614 -0.9691218,0.97579 -1.2862219,1.780794 -0.3137089,0.796396 -0.3829003,1.34095 -0.3751117,2.229795 0.00607,0.692775 1.5076196,0.891886 0.4616034,2.505139 -1.0460169,1.613255 -2.4827454,1.73217 -2.77141591,-1.187107 -0.13057816,-1.320515 0.28509691,-2.543533 0.90002141,-3.656509 0.6199751,-1.122117 1.5251405,-2.100333 2.7179238,-2.910548 0.7419604,-0.503987 1.4985292,-0.8736 2.2586053,-1.141026 0.7710558,-0.271289 1.3432991,-0.415321 2.5144525,-0.558144 0.2103823,-0.7859 0.3575465,-1.582785 0.8259099,-1.194527 0.2158119,0.178901 0.074206,1.124748 0.074206,1.124748 0.456968,-0.03086 0.895996,-0.057 1.318493,-0.05284 2.708389,0.02665 4.486818,2.328005 4.354317,4.560326 -0.167488,2.821773 -1.875831,4.725478 -3.159439,5.560612 -2.046842,1.331705 -3.5107625,1.505377 -4.8021186,1.217731 C 7.1850387,28.457857 6.88789,29.774412 6.3279663,31.952641 5.1484305,36.541305 4.5409142,37.417114 4.0780861,37.221237 2.2731887,36.457372 3.2350833,34.412396 3.897923,32.763849 Z M 9.7816468,15.839623 7.8905286,24.800708 c 1.6452181,0.302387 2.6614064,-0.243597 4.1466884,-1.123445 1.256299,-0.744203 2.424212,-3.049311 2.229276,-4.753706 -0.254897,-2.228655 -2.303939,-2.696499 -3.400484,-2.69623 -0.328434,8.1e-5 -0.720792,0.02705 -1.1776452,0.071 z"
         id="path1457"
         sodipodi:nodetypes="scssssssssscscssscsssccssscc"
         style="stroke-width:0.5655634;fill:#ffffff;stroke:#000000;stroke-dasharray:none" />
      <path
         id="path1463"
         d="m 32.186105,26.729931 c 0.114525,-0.324918 -0.320326,-0.361837 -0.475376,-0.357561 -1.884151,0.05195 -2.546659,-0.272581 -4.071961,0.502415 -1.083453,0.550495 -1.81465,1.282069 -2.280971,1.877923 -0.328151,0.431779 -0.655018,1.187887 -0.983169,2.267333 -0.304794,1.046163 -0.33772,1.533521 -0.479979,2.617737 -0.03134,0.238823 -0.122175,0.496364 -0.201742,0.661925 -0.211263,0.439589 -0.55171,0.460161 -0.663415,0.460161 -0.164074,0 -0.24685,-0.1768 -0.24685,-0.530859 0,-0.552676 -0.05842,-1.145622 0.287004,-2.561856 0.353154,-1.410497 0.08744,-0.462558 0.780506,-2.949002 0.248459,-0.891371 0.599846,-1.804803 0.100697,-2.161008 -0.261881,-0.186885 -0.915663,0.07016 -1.060965,0.67256 -0.328896,1.363557 -0.440372,2.071549 -1.043144,3.883225 -1.277238,3.838833 -2.90265,3.750871 -3.170365,3.750602 -0.120906,-1.21e-4 -0.226984,-0.06557 -0.311004,-0.207088 -0.08011,-0.134934 -0.115967,-0.310858 -0.115967,-0.518112 0,-0.474957 0.420691,-1.661353 0.747783,-3.091195 0.121341,-0.530428 0.356906,-1.323768 0.632968,-3.158318 0.02881,-0.191472 0.145277,-0.654791 -0.125098,-0.797227 -0.153923,-0.08109 -0.96891,-0.51618 -1.310345,0.436615 -0.225345,0.628839 -0.679265,2.370703 -1.635946,4.473439 -0.437686,0.962011 -1.268848,2.169909 -1.767761,2.35232 -0.262388,0.09593 -0.695554,0.0326 -0.611224,-0.600418 0.02626,-0.197099 0.194215,-1.161922 0.595378,-2.877787 0.534166,-2.28475 0.799835,-4.263385 1.418293,-5.740592 0.754731,-1.8027 1.601103,-2.67316 3.466265,-1.916987 0.893368,0.372549 1.107933,-1.871704 0.400665,-1.939564 -0.345423,-0.08635 -0.677841,-0.130392 -0.997357,-0.130392 -0.897898,0.14357 -1.731043,0.186497 -2.569369,1.024349 -0.50271,0.502426 -1.265197,1.340108 -1.589011,2.292373 -0.267334,0.786169 -0.560637,1.881857 -0.880154,3.289455 l -1.594185,6.91686 c -0.09961,0.432206 -0.124782,0.903534 0.182068,1.32297 0.587738,0.803385 1.196651,0.838276 1.840827,0.496576 0.362059,-0.192053 0.830134,-0.413864 1.365093,-1.144775 0.407551,-0.556835 0.638883,-1.09996 0.961319,-1.651 -0.115582,0.740449 -0.142928,1.170886 -0.04806,1.588806 0.130689,0.57572 0.337512,0.99433 0.690377,1.116521 0.732562,0.253674 1.329296,-0.172971 2.02869,-0.575138 0.594669,-0.397051 1.070104,-0.812238 1.829532,-1.776674 -0.207254,0.811743 -0.311051,1.445701 -0.311051,1.903386 0,0.138169 0.0389,0.253761 0.116618,0.348751 0.07772,0.103629 0.173552,0.156486 0.285814,0.156486 0.215889,0 0.755558,-0.249398 1.619115,-0.75026 0.443197,-0.257055 0.87079,-0.524045 1.284418,-0.799296 0.0349,0.05601 0.07141,0.112717 0.111118,0.168093 l -2.552025,2.188887 c -1.070811,0.941277 -1.606138,1.718308 -1.606138,2.331433 0,0.405873 0.233608,0.72038 0.699929,0.944905 0.457684,0.224525 1.109442,0.336175 1.955729,0.336175 1.968911,0 3.671269,-0.62047 5.104773,-1.863992 0.474957,-0.405871 0.806228,-0.812309 0.996211,-1.218181 0.189983,-0.405872 0.402454,-1.156432 0.635615,-2.25315 l 1.112881,-4.973861 c 0.06909,-0.362694 0.165167,-0.782167 0.286066,-1.257122 l 0.324037,-1.244445 c 0.04107,-0.168833 0.0775,-0.310388 0.11574,-0.477737 0.207254,-0.06045 0.370796,-0.121717 0.453974,-0.246691 0.16247,-0.24411 0.164058,-0.302545 0.273129,-0.611993 z m -1.062923,0.831773 c -0.120806,0.09396 -0.22329,0.202645 -0.351185,0.272965 -0.354059,0.250432 -0.851449,1.13049 -0.947539,1.336096 -0.407651,0.872248 -0.730961,1.507687 -1.19651,2.136645 -0.657922,0.888854 -1.019903,1.315069 -2.479104,2.42018 -0.362693,-0.362694 -0.545084,-0.790378 -0.545084,-1.282605 0,-0.37133 0.103605,-0.950446 0.310859,-1.736284 0.215889,-0.794472 0.441057,-1.45893 0.674218,-1.994335 0.224524,-0.457685 0.501372,-0.758525 0.829524,-0.90533 0.328152,-0.146808 0.892423,-0.220437 1.695531,-0.220437 0.595125,-0.01741 1.346595,-0.03783 2.00929,-0.02689 z m -2.345053,4.884838 -0.945234,4.182732 c -0.146805,0.664939 -0.281464,1.152546 -0.402362,1.463427 -0.120898,0.319516 -0.280041,0.584537 -0.47866,0.791791 -0.492228,0.561313 -1.394567,0.84155 -2.707173,0.84155 -0.716753,0 -1.265614,-0.100735 -1.64558,-0.299353 -0.37133,-0.189983 -0.557171,-0.46202 -0.557171,-0.816079 0,-0.164076 0.01774,-0.310316 0.05228,-0.439849 0.04318,-0.120898 0.155326,-0.292784 0.336673,-0.517309 0.189982,-0.224525 0.409823,-0.454614 0.660254,-0.687775 0.250431,-0.233161 0.656536,-0.57922 1.217848,-1.036905 0.569948,-0.457686 1.178603,-0.935718 1.826272,-1.43658 0.647668,-0.509499 1.528867,-1.190729 2.642853,-2.04565 z"
         sodipodi:nodetypes="sssccsssscsssssssssssssssscccsscsssscssccscsscccscscscccccsscsscsccsccccccscsccsccccc"
         style="fill:#ffffff;stroke:#000000;stroke-width:0.5655634;stroke-dasharray:none" />
    </g>
  </g>
</svg>
